<mxfile host="app.diagrams.net" modified="2022-02-15T08:13:12.975Z" agent="5.0 (X11)" etag="7ky045-bZca1hcLkXVIP" version="16.5.6" type="github">
  <diagram id="3HWIdDbV_DjCVlpmh-M5" name="Page-1">
    <mxGraphModel dx="1422" dy="793" grid="1" gridSize="10" guides="1" tooltips="1" connect="1" arrows="1" fold="1" page="1" pageScale="1" pageWidth="850" pageHeight="1100" math="0" shadow="0">
      <root>
        <mxCell id="0" />
        <mxCell id="1" parent="0" />
        <mxCell id="dwFYL5EFO-UVLg6vuDq3-1" value="s_rst" style="ellipse;shape=doubleEllipse;whiteSpace=wrap;html=1;aspect=fixed;" parent="1" vertex="1">
          <mxGeometry x="240" y="320" width="80" height="80" as="geometry" />
        </mxCell>
        <mxCell id="dwFYL5EFO-UVLg6vuDq3-2" value="s_wr_0" style="ellipse;whiteSpace=wrap;html=1;aspect=fixed;" parent="1" vertex="1">
          <mxGeometry x="400" y="480" width="80" height="80" as="geometry" />
        </mxCell>
        <mxCell id="dwFYL5EFO-UVLg6vuDq3-3" value="" style="curved=1;endArrow=classic;html=1;rounded=0;" parent="1" source="dwFYL5EFO-UVLg6vuDq3-1" target="dwFYL5EFO-UVLg6vuDq3-2" edge="1">
          <mxGeometry width="50" height="50" relative="1" as="geometry">
            <mxPoint x="350" y="460" as="sourcePoint" />
            <mxPoint x="400" y="410" as="targetPoint" />
            <Array as="points">
              <mxPoint x="410" y="400" />
            </Array>
          </mxGeometry>
        </mxCell>
        <mxCell id="dwFYL5EFO-UVLg6vuDq3-4" value="cnt &amp;lt;= 0" style="text;html=1;align=center;verticalAlign=middle;resizable=0;points=[];autosize=1;strokeColor=none;fillColor=none;" parent="1" vertex="1">
          <mxGeometry x="380" y="390" width="60" height="20" as="geometry" />
        </mxCell>
        <mxCell id="dwFYL5EFO-UVLg6vuDq3-5" value="s_wr_1" style="ellipse;whiteSpace=wrap;html=1;aspect=fixed;" parent="1" vertex="1">
          <mxGeometry x="600" y="480" width="80" height="80" as="geometry" />
        </mxCell>
        <mxCell id="dwFYL5EFO-UVLg6vuDq3-6" value="" style="curved=1;endArrow=classic;html=1;rounded=0;" parent="1" source="dwFYL5EFO-UVLg6vuDq3-2" target="dwFYL5EFO-UVLg6vuDq3-28" edge="1">
          <mxGeometry width="50" height="50" relative="1" as="geometry">
            <mxPoint x="490" y="490" as="sourcePoint" />
            <mxPoint x="480" y="440" as="targetPoint" />
            <Array as="points">
              <mxPoint x="470" y="440" />
            </Array>
          </mxGeometry>
        </mxCell>
        <mxCell id="dwFYL5EFO-UVLg6vuDq3-7" value="&lt;div&gt;wr &amp;lt;= &#39;0&#39;&lt;/div&gt;shift &amp;lt;= &#39;0&#39;" style="text;html=1;align=center;verticalAlign=middle;resizable=0;points=[];autosize=1;strokeColor=none;fillColor=none;" parent="1" vertex="1">
          <mxGeometry x="410" y="560" width="70" height="30" as="geometry" />
        </mxCell>
        <mxCell id="dwFYL5EFO-UVLg6vuDq3-8" value="&lt;div&gt;wr &amp;lt;= &#39;0&#39;&lt;/div&gt;shift &amp;lt;= &#39;0&#39;" style="text;html=1;align=center;verticalAlign=middle;resizable=0;points=[];autosize=1;strokeColor=none;fillColor=none;" parent="1" vertex="1">
          <mxGeometry x="245" y="285" width="70" height="30" as="geometry" />
        </mxCell>
        <mxCell id="dwFYL5EFO-UVLg6vuDq3-9" value="&lt;div&gt;wr &amp;lt;= &#39;1&#39;&lt;/div&gt;shift &amp;lt;= &#39;0&#39;" style="text;html=1;align=center;verticalAlign=middle;resizable=0;points=[];autosize=1;strokeColor=none;fillColor=none;" parent="1" vertex="1">
          <mxGeometry x="685" y="505" width="70" height="30" as="geometry" />
        </mxCell>
        <mxCell id="dwFYL5EFO-UVLg6vuDq3-10" value="/ wait_cnt &amp;lt;= 0" style="text;html=1;align=center;verticalAlign=middle;resizable=0;points=[];autosize=1;strokeColor=none;fillColor=none;rotation=-55;" parent="1" vertex="1">
          <mxGeometry x="425" y="430" width="90" height="20" as="geometry" />
        </mxCell>
        <mxCell id="dwFYL5EFO-UVLg6vuDq3-11" value="" style="curved=1;endArrow=classic;html=1;rounded=0;" parent="1" source="dwFYL5EFO-UVLg6vuDq3-5" target="dwFYL5EFO-UVLg6vuDq3-2" edge="1">
          <mxGeometry width="50" height="50" relative="1" as="geometry">
            <mxPoint x="600" y="650" as="sourcePoint" />
            <mxPoint x="650" y="600" as="targetPoint" />
            <Array as="points">
              <mxPoint x="540" y="570" />
            </Array>
          </mxGeometry>
        </mxCell>
        <mxCell id="dwFYL5EFO-UVLg6vuDq3-12" value="/ cnt &amp;lt;= cnt + 1" style="text;html=1;align=center;verticalAlign=middle;resizable=0;points=[];autosize=1;strokeColor=none;fillColor=none;" parent="1" vertex="1">
          <mxGeometry x="490" y="560" width="100" height="20" as="geometry" />
        </mxCell>
        <mxCell id="dwFYL5EFO-UVLg6vuDq3-13" value="s_wr_done" style="ellipse;whiteSpace=wrap;html=1;aspect=fixed;" parent="1" vertex="1">
          <mxGeometry x="240" y="640" width="80" height="80" as="geometry" />
        </mxCell>
        <mxCell id="dwFYL5EFO-UVLg6vuDq3-14" value="" style="curved=1;endArrow=classic;html=1;rounded=0;" parent="1" source="dwFYL5EFO-UVLg6vuDq3-2" target="dwFYL5EFO-UVLg6vuDq3-13" edge="1">
          <mxGeometry width="50" height="50" relative="1" as="geometry">
            <mxPoint x="250" y="610" as="sourcePoint" />
            <mxPoint x="300" y="560" as="targetPoint" />
            <Array as="points">
              <mxPoint x="380" y="620" />
            </Array>
          </mxGeometry>
        </mxCell>
        <mxCell id="dwFYL5EFO-UVLg6vuDq3-15" value="&lt;div&gt;cnt = CNT_MAX /&lt;/div&gt;&lt;div&gt;&lt;br&gt;&lt;/div&gt;" style="text;html=1;align=center;verticalAlign=middle;resizable=0;points=[];autosize=1;strokeColor=none;fillColor=none;" parent="1" vertex="1">
          <mxGeometry x="370" y="610" width="110" height="30" as="geometry" />
        </mxCell>
        <mxCell id="dwFYL5EFO-UVLg6vuDq3-16" value="s_shift" style="ellipse;whiteSpace=wrap;html=1;aspect=fixed;" parent="1" vertex="1">
          <mxGeometry x="40" y="600" width="80" height="80" as="geometry" />
        </mxCell>
        <mxCell id="dwFYL5EFO-UVLg6vuDq3-17" value="" style="curved=1;endArrow=classic;html=1;rounded=0;" parent="1" source="dwFYL5EFO-UVLg6vuDq3-13" target="dwFYL5EFO-UVLg6vuDq3-16" edge="1">
          <mxGeometry width="50" height="50" relative="1" as="geometry">
            <mxPoint x="110" y="790" as="sourcePoint" />
            <mxPoint x="160" y="740" as="targetPoint" />
            <Array as="points">
              <mxPoint x="160" y="710" />
            </Array>
          </mxGeometry>
        </mxCell>
        <mxCell id="dwFYL5EFO-UVLg6vuDq3-18" value="/" style="text;html=1;align=center;verticalAlign=middle;resizable=0;points=[];autosize=1;strokeColor=none;fillColor=none;" parent="1" vertex="1">
          <mxGeometry x="160" y="700" width="20" height="20" as="geometry" />
        </mxCell>
        <mxCell id="dwFYL5EFO-UVLg6vuDq3-19" value="s_wait" style="ellipse;whiteSpace=wrap;html=1;aspect=fixed;" parent="1" vertex="1">
          <mxGeometry x="40" y="440" width="80" height="80" as="geometry" />
        </mxCell>
        <mxCell id="dwFYL5EFO-UVLg6vuDq3-20" value="" style="curved=1;endArrow=classic;html=1;rounded=0;" parent="1" source="dwFYL5EFO-UVLg6vuDq3-16" target="dwFYL5EFO-UVLg6vuDq3-19" edge="1">
          <mxGeometry width="50" height="50" relative="1" as="geometry">
            <mxPoint x="20" y="590" as="sourcePoint" />
            <mxPoint x="70" y="540" as="targetPoint" />
            <Array as="points">
              <mxPoint x="50" y="560" />
            </Array>
          </mxGeometry>
        </mxCell>
        <mxCell id="dwFYL5EFO-UVLg6vuDq3-21" value="/" style="text;html=1;align=center;verticalAlign=middle;resizable=0;points=[];autosize=1;strokeColor=none;fillColor=none;" parent="1" vertex="1">
          <mxGeometry x="10" y="540" width="20" height="20" as="geometry" />
        </mxCell>
        <mxCell id="dwFYL5EFO-UVLg6vuDq3-22" value="" style="curved=1;endArrow=classic;html=1;rounded=0;" parent="1" source="dwFYL5EFO-UVLg6vuDq3-19" target="dwFYL5EFO-UVLg6vuDq3-2" edge="1">
          <mxGeometry width="50" height="50" relative="1" as="geometry">
            <mxPoint x="190" y="500" as="sourcePoint" />
            <mxPoint x="240" y="450" as="targetPoint" />
            <Array as="points">
              <mxPoint x="230" y="450" />
            </Array>
          </mxGeometry>
        </mxCell>
        <mxCell id="dwFYL5EFO-UVLg6vuDq3-23" value="&lt;div&gt;irq = &#39;1&#39; /&lt;/div&gt;&lt;div&gt;cnt &amp;lt;= 0&lt;/div&gt;&lt;div&gt;selector &amp;lt;= not selector&lt;br&gt;&lt;/div&gt;" style="text;html=1;align=center;verticalAlign=middle;resizable=0;points=[];autosize=1;strokeColor=none;fillColor=none;" parent="1" vertex="1">
          <mxGeometry x="150" y="420" width="140" height="50" as="geometry" />
        </mxCell>
        <mxCell id="dwFYL5EFO-UVLg6vuDq3-24" value="&lt;div&gt;wr &amp;lt;= &#39;0&#39;&lt;/div&gt;shift &amp;lt;= &#39;0&#39;" style="text;html=1;align=center;verticalAlign=middle;resizable=0;points=[];autosize=1;strokeColor=none;fillColor=none;" parent="1" vertex="1">
          <mxGeometry x="245" y="720" width="70" height="30" as="geometry" />
        </mxCell>
        <mxCell id="dwFYL5EFO-UVLg6vuDq3-25" value="&lt;div&gt;wr &amp;lt;= &#39;0&#39;&lt;/div&gt;shift &amp;lt;= &#39;1&#39;" style="text;html=1;align=center;verticalAlign=middle;resizable=0;points=[];autosize=1;strokeColor=none;fillColor=none;" parent="1" vertex="1">
          <mxGeometry x="120" y="610" width="70" height="30" as="geometry" />
        </mxCell>
        <mxCell id="dwFYL5EFO-UVLg6vuDq3-26" value="&lt;div&gt;wr &amp;lt;= &#39;0&#39;&lt;/div&gt;shift &amp;lt;= &#39;0&#39;" style="text;html=1;align=center;verticalAlign=middle;resizable=0;points=[];autosize=1;strokeColor=none;fillColor=none;" parent="1" vertex="1">
          <mxGeometry x="45" y="410" width="70" height="30" as="geometry" />
        </mxCell>
        <mxCell id="dwFYL5EFO-UVLg6vuDq3-27" value="s_rst" style="ellipse;shape=doubleEllipse;whiteSpace=wrap;html=1;aspect=fixed;" parent="1" vertex="1">
          <mxGeometry x="640" y="840" width="80" height="80" as="geometry" />
        </mxCell>
        <mxCell id="dwFYL5EFO-UVLg6vuDq3-28" value="s_wr_wait" style="ellipse;whiteSpace=wrap;html=1;aspect=fixed;" parent="1" vertex="1">
          <mxGeometry x="520" y="360" width="80" height="80" as="geometry" />
        </mxCell>
        <mxCell id="dwFYL5EFO-UVLg6vuDq3-29" value="" style="curved=1;endArrow=classic;html=1;rounded=0;" parent="1" source="dwFYL5EFO-UVLg6vuDq3-28" target="dwFYL5EFO-UVLg6vuDq3-5" edge="1">
          <mxGeometry width="50" height="50" relative="1" as="geometry">
            <mxPoint x="660" y="420" as="sourcePoint" />
            <mxPoint x="710" y="370" as="targetPoint" />
            <Array as="points">
              <mxPoint x="650" y="430" />
            </Array>
          </mxGeometry>
        </mxCell>
        <mxCell id="dwFYL5EFO-UVLg6vuDq3-30" value="wait_cnt = WAIT_CNT_MAX /" style="text;html=1;align=center;verticalAlign=middle;resizable=0;points=[];autosize=1;strokeColor=none;fillColor=none;" parent="1" vertex="1">
          <mxGeometry x="630" y="410" width="170" height="20" as="geometry" />
        </mxCell>
        <mxCell id="dwFYL5EFO-UVLg6vuDq3-31" value="" style="curved=1;endArrow=classic;html=1;rounded=0;" parent="1" source="dwFYL5EFO-UVLg6vuDq3-28" target="dwFYL5EFO-UVLg6vuDq3-28" edge="1">
          <mxGeometry width="50" height="50" relative="1" as="geometry">
            <mxPoint x="450" y="360" as="sourcePoint" />
            <mxPoint x="500" y="310" as="targetPoint" />
            <Array as="points">
              <mxPoint x="520" y="320" />
              <mxPoint x="580" y="310" />
            </Array>
          </mxGeometry>
        </mxCell>
        <mxCell id="dwFYL5EFO-UVLg6vuDq3-32" value="/ wait_cnt &amp;lt;= wait_cnt + 1" style="text;html=1;align=center;verticalAlign=middle;resizable=0;points=[];autosize=1;strokeColor=none;fillColor=none;" parent="1" vertex="1">
          <mxGeometry x="480" y="295" width="150" height="20" as="geometry" />
        </mxCell>
        <mxCell id="dwFYL5EFO-UVLg6vuDq3-33" value="s_wait_irq" style="ellipse;whiteSpace=wrap;html=1;aspect=fixed;" parent="1" vertex="1">
          <mxGeometry x="780" y="1020" width="80" height="80" as="geometry" />
        </mxCell>
        <mxCell id="dwFYL5EFO-UVLg6vuDq3-34" value="s_rd" style="ellipse;whiteSpace=wrap;html=1;aspect=fixed;" parent="1" vertex="1">
          <mxGeometry x="680" y="1200" width="80" height="80" as="geometry" />
        </mxCell>
        <mxCell id="dwFYL5EFO-UVLg6vuDq3-35" value="s_rd_wait" style="ellipse;whiteSpace=wrap;html=1;aspect=fixed;" parent="1" vertex="1">
          <mxGeometry x="880" y="1310" width="80" height="80" as="geometry" />
        </mxCell>
        <mxCell id="dwFYL5EFO-UVLg6vuDq3-36" value="" style="curved=1;endArrow=classic;html=1;rounded=0;" parent="1" source="dwFYL5EFO-UVLg6vuDq3-27" target="dwFYL5EFO-UVLg6vuDq3-33" edge="1">
          <mxGeometry width="50" height="50" relative="1" as="geometry">
            <mxPoint x="700" y="1020" as="sourcePoint" />
            <mxPoint x="750" y="970" as="targetPoint" />
            <Array as="points">
              <mxPoint x="790" y="940" />
            </Array>
          </mxGeometry>
        </mxCell>
        <mxCell id="dwFYL5EFO-UVLg6vuDq3-37" value="/" style="text;html=1;align=center;verticalAlign=middle;resizable=0;points=[];autosize=1;strokeColor=none;fillColor=none;" parent="1" vertex="1">
          <mxGeometry x="780" y="920" width="20" height="20" as="geometry" />
        </mxCell>
        <mxCell id="dwFYL5EFO-UVLg6vuDq3-38" value="" style="curved=1;endArrow=classic;html=1;rounded=0;" parent="1" source="dwFYL5EFO-UVLg6vuDq3-33" target="dwFYL5EFO-UVLg6vuDq3-34" edge="1">
          <mxGeometry width="50" height="50" relative="1" as="geometry">
            <mxPoint x="810" y="1220" as="sourcePoint" />
            <mxPoint x="860" y="1170" as="targetPoint" />
            <Array as="points">
              <mxPoint x="810" y="1170" />
            </Array>
          </mxGeometry>
        </mxCell>
        <mxCell id="dwFYL5EFO-UVLg6vuDq3-39" value="&lt;div&gt;irq_in = &#39;1&#39; /&lt;/div&gt;&lt;div&gt;cnt &amp;lt;= 0&lt;br&gt;&lt;/div&gt;" style="text;html=1;align=center;verticalAlign=middle;resizable=0;points=[];autosize=1;strokeColor=none;fillColor=none;" parent="1" vertex="1">
          <mxGeometry x="800" y="1155" width="80" height="30" as="geometry" />
        </mxCell>
        <mxCell id="dwFYL5EFO-UVLg6vuDq3-40" value="" style="curved=1;endArrow=classic;html=1;rounded=0;" parent="1" source="dwFYL5EFO-UVLg6vuDq3-34" target="dwFYL5EFO-UVLg6vuDq3-35" edge="1">
          <mxGeometry width="50" height="50" relative="1" as="geometry">
            <mxPoint x="480" y="1290" as="sourcePoint" />
            <mxPoint x="530" y="1240" as="targetPoint" />
            <Array as="points">
              <mxPoint x="780" y="1350" />
            </Array>
          </mxGeometry>
        </mxCell>
        <mxCell id="dwFYL5EFO-UVLg6vuDq3-41" value="/ wait_cnt &amp;lt;= 0" style="text;html=1;align=center;verticalAlign=middle;resizable=0;points=[];autosize=1;strokeColor=none;fillColor=none;" parent="1" vertex="1">
          <mxGeometry x="700" y="1330" width="90" height="20" as="geometry" />
        </mxCell>
        <mxCell id="dwFYL5EFO-UVLg6vuDq3-42" value="" style="curved=1;endArrow=classic;html=1;rounded=0;" parent="1" source="dwFYL5EFO-UVLg6vuDq3-34" target="dwFYL5EFO-UVLg6vuDq3-33" edge="1">
          <mxGeometry width="50" height="50" relative="1" as="geometry">
            <mxPoint x="660" y="1160" as="sourcePoint" />
            <mxPoint x="710" y="1110" as="targetPoint" />
            <Array as="points">
              <mxPoint x="720" y="1130" />
            </Array>
          </mxGeometry>
        </mxCell>
        <mxCell id="dwFYL5EFO-UVLg6vuDq3-43" value="cnt = CNT_MAX /" style="text;html=1;align=center;verticalAlign=middle;resizable=0;points=[];autosize=1;strokeColor=none;fillColor=none;rotation=-45;" parent="1" vertex="1">
          <mxGeometry x="650" y="1135" width="110" height="20" as="geometry" />
        </mxCell>
        <mxCell id="dwFYL5EFO-UVLg6vuDq3-44" value="" style="curved=1;endArrow=classic;html=1;rounded=0;" parent="1" source="dwFYL5EFO-UVLg6vuDq3-35" target="dwFYL5EFO-UVLg6vuDq3-34" edge="1">
          <mxGeometry width="50" height="50" relative="1" as="geometry">
            <mxPoint x="840" y="1280" as="sourcePoint" />
            <mxPoint x="890" y="1230" as="targetPoint" />
            <Array as="points">
              <mxPoint x="850" y="1240" />
            </Array>
          </mxGeometry>
        </mxCell>
        <mxCell id="dwFYL5EFO-UVLg6vuDq3-45" value="&lt;div&gt;wait_cnt = WAIT_CNT_MAX /&lt;/div&gt;cnt &amp;lt;= cnt + 1" style="text;html=1;align=center;verticalAlign=middle;resizable=0;points=[];autosize=1;strokeColor=none;fillColor=none;" parent="1" vertex="1">
          <mxGeometry x="800" y="1225" width="170" height="30" as="geometry" />
        </mxCell>
        <mxCell id="dwFYL5EFO-UVLg6vuDq3-46" value="" style="curved=1;endArrow=classic;html=1;rounded=0;" parent="1" source="dwFYL5EFO-UVLg6vuDq3-35" target="dwFYL5EFO-UVLg6vuDq3-35" edge="1">
          <mxGeometry width="50" height="50" relative="1" as="geometry">
            <mxPoint x="950" y="1300" as="sourcePoint" />
            <mxPoint x="1000" y="1250" as="targetPoint" />
            <Array as="points">
              <mxPoint x="1000" y="1300" />
              <mxPoint x="1020" y="1360" />
            </Array>
          </mxGeometry>
        </mxCell>
        <mxCell id="dwFYL5EFO-UVLg6vuDq3-47" value="/ wait_cnt &amp;lt;= wait_cnt + 1" style="text;html=1;align=center;verticalAlign=middle;resizable=0;points=[];autosize=1;strokeColor=none;fillColor=none;" parent="1" vertex="1">
          <mxGeometry x="1020" y="1320" width="150" height="20" as="geometry" />
        </mxCell>
      </root>
    </mxGraphModel>
  </diagram>
</mxfile>
